<!-- Generator: Adobe Illustrator 21.1.0, SVG Export Plug-In  -->
<svg version="1.1"
	 xmlns="http://www.w3.org/2000/svg" xmlns:xlink="http://www.w3.org/1999/xlink" xmlns:a="http://ns.adobe.com/AdobeSVGViewerExtensions/3.0/"
	 x="0px" y="0px" width="86.2px" height="86.2px" viewBox="0 0 86.2 86.2" style="enable-background:new 0 0 86.2 86.2;"
	 xml:space="preserve">
<style type="text/css">
	.st0{fill:#FFF6E9;}
</style>
<defs>
</defs>
<g>
	<path class="st0" d="M45.3,61.1l-1.4,0c-1.1,0-2-0.9-2-2l0-0.7c0,0,0,0,0,0l-3.4,2.4c-0.6,0.4-0.7,1.2-0.3,1.8l2.4,3.4
		c0.4,0.6,1.2,0.7,1.8,0.3l3.4-2.4c0.6-0.4,0.7-1.2,0.3-1.8L45.3,61.1z"/>
	<path class="st0" d="M47.2,45.7L47.2,45.7c0.8,0.1,1.4-0.5,1.5-1.2l0.3-4.4c0.1-0.7-0.5-1.4-1.2-1.4l-4.4-0.3c0,0,0,0,0,0l0,0
		c-0.7-0.1-1.4,0.5-1.4,1.2l-0.2,2c0.4,0.2,0.7,0.4,0.9,0.8l1.5,3.1L47.2,45.7C47.2,45.7,47.2,45.7,47.2,45.7z"/>
	<path class="st0" d="M39.8,50.1l3.7-1.9c0.6-0.3,0.9-1.1,0.6-1.7l-1.9-3.7c-0.3-0.6-1.1-0.9-1.7-0.6L36.8,44
		c-0.6,0.3-0.9,1.1-0.6,1.7l1.9,3.7C38.4,50.1,39.1,50.4,39.8,50.1z"/>
	<path class="st0" d="M34.9,27.6H34l0.6,9.4h1.7C35.9,34.2,35.4,30.8,34.9,27.6z"/>
	<path class="st0" d="M44.1,49.1l-1.1,0l-3.2,1.6c-0.2,0.1-0.5,0.2-0.8,0.2c-0.2,0-0.3,0-0.5-0.1l0,3.8c0,0.7,0.6,1.3,1.3,1.3l2.6,0
		l1.6,0c0.7,0,1.3-0.6,1.3-1.3l0-4.2C45.4,49.6,44.8,49.1,44.1,49.1z"/>
	<path class="st0" d="M43.1,0C19.3,0,0,19.3,0,43.1s19.3,43.1,43.1,43.1s43.1-19.3,43.1-43.1S66.9,0,43.1,0z M52.3,69.2h-1.4v0.7
		H36.4v-0.7H35L32.3,26h2.3c-0.4-2.5-0.9-4.8-1.4-6.6c-0.5-1.8-1.3-2-1.6-2.1c-2.2-0.5-6.4,2.9-8,4.6l-1.8-1.8
		c0.6-0.7,6.3-6.4,10.5-5.3c1.1,0.3,2.6,1.2,3.4,3.9c0.5,2,1.1,4.6,1.6,7.3h17.7L52.3,69.2z"/>
	<path class="st0" d="M48.1,53.7l-1.9,0l0,0.9c0,0.5-0.2,1-0.6,1.4c-0.4,0.4-0.9,0.6-1.4,0.6l-1.6,0l0,1.7l0,0.9
		c0,0.2,0,0.3,0.1,0.5c0,0.1,0.1,0.2,0.2,0.3c0,0,0,0.1,0.1,0.1c0.1,0.1,0.1,0.1,0.2,0.2c0.1,0,0.1,0.1,0.2,0.1c0.1,0,0.1,0,0.2,0
		c0.1,0,0.2,0.1,0.3,0.1c0,0,0,0,0,0l0.9,0l3.3,0c0.7,0,1.3-0.6,1.3-1.3l0-4.2C49.3,54.2,48.8,53.7,48.1,53.7z"/>
	<path class="st0" d="M52.6,37l0.6-9.4H37.4c0.5,3.3,1,6.6,1.4,9.4H52.6z"/>
</g>
</svg>
