<!-- Generator: Adobe Illustrator 21.1.0, SVG Export Plug-In  -->
<svg version="1.1"
	 xmlns="http://www.w3.org/2000/svg" xmlns:xlink="http://www.w3.org/1999/xlink" xmlns:a="http://ns.adobe.com/AdobeSVGViewerExtensions/3.0/"
	 x="0px" y="0px" width="86.2px" height="86.2px" viewBox="0 0 86.2 86.2" style="enable-background:new 0 0 86.2 86.2;"
	 xml:space="preserve">
<style type="text/css">
	.st0{fill:#FFF6E9;}
</style>
<defs>
</defs>
<g>
	<path class="st0" d="M44,27.8c-7.8,0-14.2,6.4-14.2,14.2S36.1,56.2,44,56.2c7.8,0,14.2-6.4,14.2-14.2S51.8,27.8,44,27.8z M44,52.4
		c-5.7,0-10.4-4.7-10.4-10.4S38.2,31.6,44,31.6c5.7,0,10.4,4.7,10.4,10.4S49.7,52.4,44,52.4z"/>
	<path class="st0" d="M43.1,0C19.3,0,0,19.3,0,43.1s19.3,43.1,43.1,43.1s43.1-19.3,43.1-43.1S66.9,0,43.1,0z M22.3,39.1
		c-0.9,0.6-1.5,1.6-1.3,2.7c0.8,7.3,1.4,19.3,1.4,20.6c0,1.9-1.2,3.4-2.6,3.4c-1.4,0-2.6-1.5-2.6-3.4c0-1.3,0.6-13.3,1.4-20.6
		c0.1-1.1-0.4-2.2-1.3-2.7c-1.4-0.9-2.4-2.5-2.4-4.3l0.7-11.7c0-0.4,0.4-0.8,0.8-0.8c0.5,0,0.9,0.4,0.8,0.9l-0.5,9.4
		c0,0.5,0.4,1,1,1c0.5,0,1-0.4,1-1l0.2-9.4c0-0.5,0.4-0.9,0.9-0.9c0.5,0,0.9,0.4,0.9,0.9l0.2,9.4c0,0.5,0.4,1,1,1c0.5,0,1-0.4,1-1
		l-0.5-9.4c0-0.5,0.4-0.9,0.8-0.9c0.4,0,0.8,0.3,0.8,0.8l0.7,11.7C24.7,36.6,23.8,38.2,22.3,39.1z M44,60.8
		c-10.4,0-18.7-8.4-18.7-18.7S33.6,23.3,44,23.3S62.7,31.7,62.7,42S54.3,60.8,44,60.8z M68.8,65.9c-1.4,0-2.6-1.5-2.6-3.4
		c0-1.2,0.5-11.5,1.2-18.8h-0.7c-1,0-1.7-0.8-1.7-1.7v-8.3c0-4.7,1.5-9.3,4.4-13c0.1-0.2,0.4-0.2,0.6-0.2c0.2,0.1,0.3,0.3,0.3,0.5
		v22.8c0.7,7.3,1.2,17.6,1.2,18.8C71.4,64.3,70.2,65.9,68.8,65.9z"/>
</g>
</svg>
