<svg xmlns="http://www.w3.org/2000/svg" viewBox="819.963 465.9 301.082 86.605"><defs><style>.a{fill:#db023d;}</style></defs><path class="a" d="M-128.334-358.4c-.336-.113-.336-.113-.447-.224l-7.83-10.066v9.731c0,.112-.112.224-.112.336a.505.505,0,0,1-.671,0,.412.412,0,0,1-.112-.336V-370.14c0-.224.112-.447.336-.447a.492.492,0,0,1,.559.112l7.83,10.066v-9.731c0-.112.112-.224.112-.336a.413.413,0,0,1,.336-.112c.112,0,.224.112.336.112a.412.412,0,0,1,.112.336V-358.4Zm-61.738,0c-.336-.113-.336-.113-.447-.224l-7.83-10.066v9.731c0,.112-.112.224-.112.336a.412.412,0,0,1-.336.112c-.112,0-.223-.112-.336-.112a.412.412,0,0,1-.112-.336V-370.14c0-.224.112-.447.336-.447a.492.492,0,0,1,.559.112l7.83,10.066v-9.731c0-.112.112-.224.112-.336a.413.413,0,0,1,.336-.112c.112,0,.224.112.336.112a.412.412,0,0,1,.112.336V-358.4Zm-21.621-.336-1.119-2.573h-6.376l-1.119,2.573c-.112.223-.224.336-.447.336h-.113a.11.11,0,0,0-.112-.113c-.112-.112-.223-.112-.223-.223a.339.339,0,0,1,0-.447l1.23-2.909,3.467-8.389a.11.11,0,0,1,.113-.112v-.112h.112a.11.11,0,0,0,.112-.112h.336c.113,0,.113,0,.113.112h.112v.112a.109.109,0,0,0,.112.112l3.468,8.389,1.23,2.909a.341.341,0,0,1,0,.447c-.112.112-.112.223-.224.223s-.112,0-.112.113C-211.469-358.4-211.693-358.508-211.693-358.731Zm-7.047-3.579h5.368l-2.684-6.6Zm62.074,2.572a4.061,4.061,0,0,1-1.23-2.908v-7.494c0-.112.112-.224.112-.336a.411.411,0,0,1,.336-.112c.112,0,.223.112.336.112a.412.412,0,0,1,.112.336v7.494a3.613,3.613,0,0,0,.895,2.349,3.4,3.4,0,0,0,2.349.895,3.613,3.613,0,0,0,2.349-.895,3.4,3.4,0,0,0,.895-2.349v-7.494c0-.112.113-.224.113-.336.112-.112.112-.112.335-.112.113,0,.224.112.336.112a.41.41,0,0,1,.113.336v7.494a4.129,4.129,0,0,1-4.139,4.138A4.061,4.061,0,0,1-156.666-359.738Zm-20.95-.559a6.281,6.281,0,0,1,0-8.725,6.139,6.139,0,0,1,8.053-.447.41.41,0,0,1,.112.335.676.676,0,0,1-.112.448.411.411,0,0,1-.336.112.673.673,0,0,1-.447-.112,5.343,5.343,0,0,0-3.132-1.119,5.011,5.011,0,0,0-5.033,5.033,5.012,5.012,0,0,0,5.033,5.034,5.2,5.2,0,0,0,3.468-1.342.412.412,0,0,1,.336-.112c.112,0,.223.112.336.112a.411.411,0,0,1,.112.336c0,.112-.112.223-.112.335a5.178,5.178,0,0,1-4.139,1.678,3.385,3.385,0,0,1-.763.086A4.7,4.7,0,0,1-177.616-360.3Zm-63.3,0a6.281,6.281,0,0,1,0-8.725,6.015,6.015,0,0,1,8.053-.447.408.408,0,0,1,.113.335.672.672,0,0,1-.113.448.411.411,0,0,1-.336.112.675.675,0,0,1-.447-.112,5.343,5.343,0,0,0-3.132-1.119,5.011,5.011,0,0,0-5.033,5.033,5.012,5.012,0,0,0,5.033,5.034,5.2,5.2,0,0,0,3.468-1.342.412.412,0,0,1,.336-.112c.112,0,.224.112.336.112a.411.411,0,0,1,.112.336c0,.112-.112.223-.112.335a5.178,5.178,0,0,1-4.139,1.678,3.385,3.385,0,0,1-.763.086A4.7,4.7,0,0,1-240.92-360.3ZM-419.846-366.7c-.593-4.409-1.017-8.9-1.611-13.4-.169-1.272.339-2.883-1.272-3.73L-424-399.855c4.07-7.716,13.82-11.277,22.129-8.224,4.918,1.865,5.935,5.765,2.629,9.92-2.883,3.477-6.868,5.172-10.768,7.123-9.327,4.748-8.224,1.78-7.292,12.888a78.283,78.283,0,0,0,1.781,10.852c.339,1.526.593,3.392-1.526,3.816-.169,0-.424.085-.593.085C-419.422-363.48-419.675-365.176-419.846-366.7Zm3.985-36.12c-1.95,1.017-2.714,2.374-1.95,4.747,1.866,5.6,2.12,5.851,7.462,2.884,1.78-1.018,3.56-2.2,5.257-3.392,1.441-1.017,3.221-2.289,2.713-4.324-.593-2.12-2.883-1.781-4.578-2.035a10.725,10.725,0,0,0-1.611-.086C-411.112-404.518-413.656-404.094-415.86-402.822Zm15.262,30.863c.509-3.561,1.78-6.953.848-10.853-.424-1.611,1.865-3.985,2.2-6.359,1.018-5.681,2.2-11.446,3.477-17.042.424-1.949.932-4.408,3.646-4.494s3.307,2.12,4.239,4.07c1.95,4.07,2.714,8.563,4.324,12.8,2.2,5.935,4.747,11.87,7.122,17.721.594,1.526,1.272,3.137-.085,4.494a2.616,2.616,0,0,1-3.561.085c-1.611-1.018-2.713-2.29-1.865-4.578,1.187-3.222-1.272-5.681-2.12-8.564-.085-.255-.339-.339-.594-.509-3.137-1.441-11.616,3.561-12.209,6.953-.594,3.561.593,7.8-2.967,10.6l-.848.085C-400.005-368.992-400.853-370.094-400.6-371.959Zm6.7-14.838c3.053-.848,5.681-1.525,8.31-2.12,1.1-.255,1.7-.848,1.272-1.866-1.866-4.408-2.883-9.241-6.02-14.329C-391.357-398.328-393.816-392.987-393.9-386.8Zm66.05,7.462a75.2,75.2,0,0,0,6.868-12.888c.848-1.95.763-3.222-1.187-4.664a48.865,48.865,0,0,1-12.04-11.955c-1.7-2.459-3.561-.594-5.257-.424-1.78.169-1.78,1.611-1.7,3.052a123.057,123.057,0,0,0,2.459,19.332c.255,1.272.255,2.714.424,3.985.255,1.95.17,3.985-1.95,4.748-2.289.848-2.628-1.526-3.646-2.8-.508-.848-.848-1.611-1.272-2.459a4.622,4.622,0,0,1-.085,2.628c-1.526,2.035-3.307,2.2-5.512,1.018-5.426-2.714-10.852-5.342-16.364-7.97-1.272-.593-2.459-1.442-4.409-1.272a37.948,37.948,0,0,1,.424,5.426c0,1.272-.169,2.883-1.865,3.053-1.526.085-2.29-1.018-2.8-2.374-1.018-2.459-.932-5.257-1.272-7.8-.086-1.273.085-2.714-.086-3.985-1.272-6.189,2.12-10.345,5.935-14.244,3.731-3.816,7.461-4.07,12.209-1.442.594.339,1.1,1.018,1.7.932a146.318,146.318,0,0,0,20.1-3.476c1.017-.255.763-1.272.848-1.95.255-1.526,1.442-1.78,2.29-1.017,4.324,3.815,7.546.424,11.022-1.526,1.1-.679,1.95-1.781,3.476-1.1,1.611.679,1.442,2.035,1.357,3.391-1.526,3.307-4.579,3.477-7.547,4.07-3.137.594-3.307,1.018-1.441,3.646a18.52,18.52,0,0,0,5.341,4.919c1.611-4.325,1.356-9.158,4.578-12.634,1.78-1.525,2.459-5.341,5.6-3.56,2.8,1.611,1.017,4.409.593,6.868a153.554,153.554,0,0,1-11.276,30.353c-1.273,2.459-1.018,5.681-3.222,7.8l-2.374.169C-330.055-375.605-329.122-377.555-327.85-379.336Zm-27.472-21.028c-2.714,3.137-6.613,4.748-10.768,7.122,5.85,3.222,10.768,7.292,17.3,7.8,1.611.085,2.629.508,3.137,1.272-1.7-3.561-2.883-7.292-4.578-10.938a27,27,0,0,0-2.544-4.918c-.424-.594-.848-1.018-1.356-1.018A1.856,1.856,0,0,0-355.322-400.363Zm7.123-6.7c-1.272.339-2.2,1.018-1.357,2.544,1.526,2.713,2.883,5.426,4.748,8.9.763-4.155,0-7.547-.508-10.768-.085-.848-.509-1.1-1.1-1.1A9.231,9.231,0,0,0-348.2-407.062Zm-20.18.339c-2.883,2.29-4.07,5.681-4.578,9.242-.17,1.187.848,1.187,1.611.848,3.476-1.78,6.953-3.561,10.344-5.426a2.928,2.928,0,0,0,1.442-2.883,16.9,16.9,0,0,0-1.866-1.611,9.086,9.086,0,0,0-3.9-1.187q-.166-.013-.33-.013A4.214,4.214,0,0,0-368.379-406.723Zm69.357,27.472a12.131,12.131,0,0,1-1.526-5.936c.085-6.358.848-12.718-.085-19.162-.339-2.459-.085-5.257,3.815-3.561,1.781.763,2.2-.848,2.968-1.7a22.613,22.613,0,0,1,13.82-6.783c2.459-.338,4.833,0,6.274,2.459,1.526,2.629-.085,4.494-1.611,6.359-3.137,3.646-7.122,6.275-11.022,8.987-1.442,1.018-2.8,1.95-4.663,3.307,5.935,3.137,11.7,3.816,17.381,4.748,2.12.339,1.781-1.187,1.781-2.459a46.281,46.281,0,0,1,1.526-13.227,21.446,21.446,0,0,1,5.257-9.5c3.391-3.561,8.224-4.239,11.7-.848,6.868,6.613,10.514,15.007,9.666,24.5-.763,8.14-9.666,14.754-17.72,14.075-3.477-.339-6.444-1.78-7.97-5.087-1.018-2.46-2.8-2.968-5.172-3.392-5.341-.763-10.6-1.865-15.855-2.967-2.883-.594-4.324-.339-3.137,3.137a21.907,21.907,0,0,1,.848,5.256c.17,1.781.086,3.646-2.12,4.24a2.887,2.887,0,0,1-.848.085c-.051,0-.1,0-.151,0C-297.386-376.7-298.283-377.938-299.022-379.251Zm41.8-10.514c.339,1.78.085,3.646-2.035,4.154a32.24,32.24,0,0,1-5,.424c.085,1.7,1.187,1.866,2.035,2.12,6.613,1.949,13.9-4.071,13.99-11.7a20.437,20.437,0,0,0-5.85-14.584c-4.494-4.748-7.886-4.494-10.684,1.611A31.055,31.055,0,0,0-267.4-395.7c-.085,6.19.508,6.7,6.359,4.579a4.952,4.952,0,0,1,1.865-.424A2.045,2.045,0,0,1-257.222-389.765Zm-36.544-9.666a51.062,51.062,0,0,0,14.244-11.277h-.339C-287.492-410.708-293.257-405.875-293.765-399.431Zm55.79,13.9a20.682,20.682,0,0,1-3.73-10.344,39.066,39.066,0,0,1,4.24-20.773c1.187-2.374,2.883-4.24,5.85-4.07,2.883.169,5,.932,6.444,3.985,2.628,5.426,4.154,10.852,3.137,16.872-2.29,3.307-4.918,3.391-7.038.255a17.844,17.844,0,0,1-2.628-10.6c.085-1.273.763-2.629-.339-3.731a1.947,1.947,0,0,0-1.526,1.273c-2.628,6.529-5,13.142-2.628,20.349,2.2,6.868,7.292,8.9,13.481,5.6a4.353,4.353,0,0,1,3.561-.593c-1.1-2.8-1.781-5.85-3.053-8.648a2.918,2.918,0,0,1,1.272-3.73c3.137-1.187,3.053-3.307,2.544-6.614-.339-2.374-.848-7.97-2.629-16.448a12.7,12.7,0,0,0-1.272-3.561c-1.1-2.12-1.866-2.967-2.543-4.24-1.272-2.2-4.07-6.953-3.137-7.97.848-1.018,1.611-.508,1.611-.508l.424.762,1.272,2.629a3.92,3.92,0,0,0,1.526,1.78,1.749,1.749,0,0,1,.848-1.441,1.673,1.673,0,0,1,1.95.254,1.619,1.619,0,0,1,.763-1.949,1.359,1.359,0,0,1,1.272-.085,16.741,16.741,0,0,0-.848-5c-.339-1.442-.255-2.543.678-2.883s1.273,1.7,1.273,1.7c1.017,3.73,2.035,10.345,2.035,10.345l.593.593c.085.085.169.255.339.339h.085a7.658,7.658,0,0,1,1.78-3.73c1.611-1.611,3.561-2.29,4.324-1.442.763.932.085,1.357.085,1.357l-1.441,1.949-1.95,3.561-1.187,3.391a5.958,5.958,0,0,1-1.611,2.714c-2.2,2.629-2.29,8.31-.679,17.975a1.139,1.139,0,0,0,1.273,1.018,1.043,1.043,0,0,0,.678-.339c5.681-6.444,13.906-9.411,20.434-14.753a1.56,1.56,0,0,1,1.017-.424c1.356.169,1.526.593,1.781,1.441,3.56-.848,7.122-2.2,10.683-2.628a5.865,5.865,0,0,1,2.714-.085,2.748,2.748,0,0,1,1.865,3.391v.085c-.339,1.526-1.78,1.526-2.883,1.1-3.391-1.272-6.274.848-8.987,1.95-2.629,1.1-1.187,4.239-.594,6.1.679,2.2,2.374.339,3.392-.17a32.437,32.437,0,0,0,3.561-2.374c.932-.593,1.949-1.7,3.136-.338,1.018,1.272.594,2.543-.254,3.646-1.526,2.12-3.9,3.137-6.275,3.9-2.967.932-3.985,2.714-3.137,5.681,0,.255.085.508.085.848,1.017,2.205-1.272,5.851,2.543,6.614,3.561.762,10.09-2.629,11.531-5.427.086-.254.086-.678.17-.763,5.342-2.628,2.2-7.292,2.289-10.938.17-5.935,3.816-12.887,8.988-15.516a8.71,8.71,0,0,1,8.733.339c1.018.593,1.781,1.017,2.967-.169,6.614-6.19,17.552-5.936,24.25.424a18.67,18.67,0,0,0,1.526,1.187l.424,5.6c-1.866,1.95-3.137,4.579-6.189,5.257-.848.17-1.95.594-2.459-.593-.339-.848.593-1.272,1.1-1.781,4.579-3.984,4.07-6.782-1.611-9.241a14.541,14.541,0,0,0-10.344-.763c-4.918,1.7-6.02,6.189-2.374,9.835,3.137,3.222,7.123,5.426,10.769,8.055,1.611,1.1,3.307,2.2,4.833,3.476,2.713,2.2,5.171,4.748,3.815,8.818-1.017,2.967-5.681,5.935-9.157,6.1a5.743,5.743,0,0,1-4.324-1.611c-6.7-6.189-15.516-8.393-23.317-12.549-1.611-.848-2.119-.254-1.78,1.526a18.43,18.43,0,0,1,.169,4.324c0,.932-.338,2.2-1.272,2.2-6.189.339-10.344,6.1-16.448,6.359a20.444,20.444,0,0,0-3.053.848c-3.222.932-5.087-.339-5.426-3.73-.17-2.544-.17-5-.339-7.547-.085-1.78.339-3.815-2.459-4.154-1.018-.17-1.526-1.1-.339-2.035,3.9-3.053.679-6.359,1.018-10.683-6.783,7.037-14.923,9.835-22.385,15.6,6.19,1.78,11.532,2.883,17.042,2.374,1.781-.17,3.392-.255,3.561,1.78.17,2.12-1.526,3.137-3.391,2.883-4.325-.593-8.564-1.272-12.888-2.035-2.459-.424-3.391.085-2.883,2.883a13.415,13.415,0,0,1,.085,5.512c-.593,2.543-2.119,3.815-4.409,1.272a13.188,13.188,0,0,1-10.174,5.257A14.068,14.068,0,0,1-237.975-385.526Zm81.567-22.892c-.849.763-2.12,1.018-3.561,1.611,5.681,5,14.753,8.818,20.264,8.9.678,0,1.525.169,1.7.763.593,2.628,2.543,2.459,4.409,2.967,1.611.509,2.883,1.78,4.239-.508s-.085-3.477-1.441-4.748c-3.308-3.137-7.631-4.833-11.023-7.8-2.8-2.459-5.511-4.154-8.309-4.154C-152.169-411.385-154.2-410.538-156.408-408.418Zm-69.018,4.748c.339-2.205.594-4.579-.848-7.038A9.254,9.254,0,0,0-225.427-403.67Zm67.068-16.958a5.224,5.224,0,0,0-3.561,2.374c-1.781,2.713-3.137,5.426-3.137,8.987,3.73-.763,6.613-2.883,9.751-4.494,1.781-.848,4.494-1.781,3.477-4.324-.848-1.95-2.883-2.628-5-2.628a2.692,2.692,0,0,0-.447-.035A6.613,6.613,0,0,0-158.359-420.628Z" transform="translate(1243.963 910.9)"/></svg>