<?xml version="1.0" encoding="iso-8859-1"?>
<!-- Generator: Adobe Illustrator 19.0.0, SVG Export Plug-In . SVG Version: 6.00 Build 0)  -->
<svg version="1.1" id="Capa_1" xmlns="http://www.w3.org/2000/svg" xmlns:xlink="http://www.w3.org/1999/xlink" x="0px" y="0px"
	 viewBox="0 0 470.229 470.229" style="enable-background:new 0 0 470.229 470.229;" xml:space="preserve">
<linearGradient id="SVGID_1_" gradientUnits="userSpaceOnUse" x1="-63.3703" y1="621.3809" x2="-47.8066" y2="605.8171" gradientTransform="matrix(21.3333 0 0 -21.3333 1421.0018 13325.2275)">
	<stop  offset="0" style="stop-color:#369CDC"/>
	<stop  offset="1" style="stop-color:#AA56D0"/>
</linearGradient>
<path style="fill:url(#SVGID_1_);" d="M235.115,0C105.728,0,0.448,105.472,0.448,235.115s105.28,235.115,234.667,235.115
	s234.667-105.472,234.667-235.115S364.501,0,235.115,0z M235.115,448.896c-117.632,0-213.333-95.915-213.333-213.781
	S117.483,21.333,235.115,21.333s213.333,95.915,213.333,213.781S352.747,448.896,235.115,448.896z"/>
<linearGradient id="SVGID_2_" gradientUnits="userSpaceOnUse" x1="-60.9422" y1="618.9526" x2="-50.235" y2="608.2455" gradientTransform="matrix(21.3333 0 0 -21.3333 1421.0018 13325.2275)">
	<stop  offset="0" style="stop-color:#369CDC"/>
	<stop  offset="1" style="stop-color:#AA56D0"/>
</linearGradient>
<path style="fill:url(#SVGID_2_);" d="M352.448,128.448h-64c-5.888,0-10.667,4.779-10.667,10.667v77.76l-154.773-87.061
	c-3.307-1.856-7.339-1.835-10.603,0.085c-3.285,1.92-5.291,5.419-5.291,9.216v192c0,3.797,2.005,7.296,5.291,9.216
	c1.664,0.981,3.52,1.451,5.376,1.451c1.792,0,3.605-0.448,5.227-1.387l154.773-87.04v77.76c0,5.888,4.779,10.667,10.667,10.667h64
	c5.888,0,10.667-4.779,10.667-10.667v-192C363.115,133.227,358.336,128.448,352.448,128.448z M128.448,312.896V157.333
	l138.24,77.781L128.448,312.896z M341.781,320.448h-42.667V149.781h42.667V320.448z"/>
<g>
</g>
<g>
</g>
<g>
</g>
<g>
</g>
<g>
</g>
<g>
</g>
<g>
</g>
<g>
</g>
<g>
</g>
<g>
</g>
<g>
</g>
<g>
</g>
<g>
</g>
<g>
</g>
<g>
</g>
</svg>
