<!-- Generator: Adobe Illustrator 21.1.0, SVG Export Plug-In  -->
<svg version="1.1"
	 xmlns="http://www.w3.org/2000/svg" xmlns:xlink="http://www.w3.org/1999/xlink" xmlns:a="http://ns.adobe.com/AdobeSVGViewerExtensions/3.0/"
	 x="0px" y="0px" width="86px" height="86px" viewBox="0 0 86 86" style="enable-background:new 0 0 86 86;" xml:space="preserve">
<style type="text/css">
	.st0{fill:#FFF6E9;}
</style>
<defs>
</defs>
<path class="st0" d="M43,0C19.2,0,0,19.2,0,43c0,23.7,19.2,43,43,43c23.7,0,43-19.2,43-43C86,19.2,66.7,0,43,0z M56.5,23h4l4.2,5.9
	V23h4.8v15.4h-4.1l-4.2-5.9v5.9h-4.8V23z M45.6,23h9.1v4h-4.2v1.7h4.1v3.8h-4.1v1.8h4.3v4h-9.2V23z M32.1,23H37c1,0,1.9,0.1,2.8,0.3
	c0.9,0.2,1.6,0.6,2.2,1c0.6,0.5,1.1,1.1,1.5,1.8c0.4,0.7,0.6,1.7,0.6,2.7c0,1.1-0.2,2-0.6,2.7c-0.4,0.7-0.9,1.4-1.5,1.8
	c-0.6,0.5-1.4,0.8-2.2,1c-0.9,0.2-1.8,0.3-2.8,0.3v3.7h-4.9V23z M14.7,27.6c0.4-1,1-1.8,1.7-2.6c0.7-0.7,1.6-1.3,2.6-1.7
	c1-0.4,2-0.6,3.1-0.6s2.2,0.2,3.1,0.6c1,0.4,1.8,1,2.6,1.7c0.7,0.7,1.3,1.6,1.7,2.6c0.4,1,0.6,2,0.6,3.1c0,1.1-0.2,2.2-0.6,3.1
	c-0.4,1-1,1.8-1.7,2.6c-0.7,0.7-1.6,1.3-2.6,1.7c-1,0.4-2,0.6-3.1,0.6S20,38.6,19,38.2c-1-0.4-1.8-1-2.6-1.7
	c-0.7-0.7-1.3-1.6-1.7-2.6c-0.4-1-0.6-2-0.6-3.1C14,29.7,14.2,28.6,14.7,27.6z M28.8,61.5c-0.7,0.6-1.5,1-2.5,1.3
	c-1,0.3-2.1,0.5-3.2,0.5h-8.7V41.9h8.4c1.1,0,2,0.1,2.9,0.4c0.9,0.2,1.6,0.6,2.3,1.1c0.6,0.5,1.1,1.1,1.5,1.8
	c0.4,0.7,0.5,1.6,0.5,2.5c0,0.7-0.1,1.3-0.3,1.7c-0.2,0.5-0.4,0.9-0.5,1.2c-0.2,0.4-0.5,0.7-0.8,1c0.5,0.3,0.9,0.7,1.3,1.2
	c0.3,0.4,0.6,0.9,0.9,1.5c0.3,0.6,0.4,1.4,0.4,2.3c0,1-0.2,2-0.5,2.8C30,60.2,29.5,60.9,28.8,61.5z M45.3,63.3l-0.7-1.9h-6.5
	l-0.7,1.9h-6.7l8.1-21.3h5.1L52,63.3H45.3z M63.9,63.3l-3.2-5.4v5.4h-6.8V41.9h7.4c1.4,0,2.6,0.2,3.8,0.5c1.2,0.4,2.2,0.9,3,1.6
	c0.9,0.7,1.5,1.6,2,2.6c0.5,1,0.7,2.2,0.7,3.6c0,1.1-0.1,2-0.4,2.7c-0.3,0.7-0.6,1.4-1,1.9c-0.4,0.6-0.9,1-1.4,1.4l4,7H63.9z"/>
</svg>
