<?xml version="1.0" encoding="iso-8859-1"?>
<!-- Generator: Adobe Illustrator 19.0.0, SVG Export Plug-In . SVG Version: 6.00 Build 0)  -->
<svg version="1.1" id="Layer_1" xmlns="http://www.w3.org/2000/svg" xmlns:xlink="http://www.w3.org/1999/xlink" x="0px" y="0px"
	 viewBox="0 0 512 512" style="enable-background:new 0 0 512 512;" xml:space="preserve">
<g>
	<path style="fill:#FFFFFF;" d="M485.614,239.69v32.096c0,41.77-34.185,76.31-75.931,76.298c-4.143,0-8.226-0.237-12.25-0.688
		c-26.814-3.051-50.233-16.167-66.945-35.277c-16.713-19.098-26.719-44.191-26.719-71.195c0-23.17,18.79-41.959,41.959-41.959h99.16
		C467.382,198.965,485.614,217.197,485.614,239.69z"/>
	<path style="fill:#FFFFFF;" d="M166.283,198.965c23.17,0,41.948,18.79,41.948,41.959c0,27.004-10.006,52.096-26.719,71.195
		c-16.701,19.11-40.12,32.226-66.945,35.277c-4.012,0.451-8.107,0.688-12.238,0.688c-41.758,0.012-75.931-34.529-75.931-76.298
		V239.69c0-22.493,18.232-40.725,40.725-40.725H166.283z"/>
</g>
<path style="fill:#F7B239;" d="M444.889,172.578H67.123C30.054,172.578,0,202.633,0,239.69v32.487
	c0,56.5,45.805,102.305,102.305,102.305c32.392,0,62.458-11.573,85.889-31.111c23.419-19.549,40.203-47.052,46.007-78.91
	c2.22-12.131,12.012-18.184,21.805-18.184c9.793,0,19.585,6.054,21.793,18.184c5.816,31.858,22.588,59.36,46.019,78.91
	c23.419,19.538,53.497,31.111,85.877,31.111c28.25,0,53.829-11.454,72.334-29.971C500.546,326.006,512,300.427,512,272.177V239.69
	C512,202.633,481.946,172.578,444.889,172.578z M67.123,198.965h99.16c14.491,0,27.264,7.351,34.8,18.525H32.987
	C40.253,206.341,52.823,198.965,67.123,198.965z M208.23,240.924c0,6.211-0.553,12.314-1.572,18.273H26.398V239.69
	c0-0.28,0.015-0.556,0.021-0.834h181.759C208.211,239.54,208.23,240.23,208.23,240.924z M102.329,348.084
	c-22.494,0.006-42.776-10.024-56.712-25.8h125.725c-15.508,13.542-35.02,22.638-56.775,25.112
	C110.554,347.847,106.459,348.084,102.329,348.084z M190.08,300.919H32.227c-2.667-6.405-4.475-13.241-5.302-20.355H200.7
	C197.872,287.743,194.312,294.569,190.08,300.919z M305.341,259.197c-1.018-5.96-1.572-12.062-1.572-18.273
	c0-0.694,0.019-1.383,0.052-2.069h181.77c0.006,0.279,0.021,0.554,0.021,0.834v19.508H305.341z M345.729,198.965h99.16
	c14.301,0,26.871,7.376,34.136,18.525H310.921C318.461,206.315,331.239,198.965,345.729,198.965z M311.3,280.562h173.787
	c-0.827,7.116-2.636,13.95-5.305,20.355H321.92C317.688,294.569,314.128,287.743,311.3,280.562z M409.683,348.084
	c-4.143,0-8.226-0.237-12.25-0.688c-21.745-2.474-41.257-11.569-56.77-25.112h125.728
	C452.453,338.059,432.171,348.09,409.683,348.084z"/>
<g>
	<path style="fill:#2BA5F7;" d="M256.002,94.959c-4.916,0-8.902-3.986-8.902-8.902V32.643c0-4.916,3.986-8.902,8.902-8.902
		c4.916,0,8.902,3.986,8.902,8.902v53.414C264.905,90.973,260.919,94.959,256.002,94.959z"/>
	<path style="fill:#2BA5F7;" d="M153.333,94.959c-2.448,0-4.884-1.003-6.643-2.973L117.015,58.75
		c-3.274-3.668-2.956-9.295,0.712-12.57c3.667-3.274,9.295-2.957,12.57,0.711l29.674,33.235c3.274,3.668,2.956,9.295-0.712,12.57
		C157.561,94.213,155.442,94.959,153.333,94.959z"/>
	<path style="fill:#2BA5F7;" d="M358.673,94.959c-2.11,0-4.228-0.745-5.927-2.262c-3.668-3.275-3.986-8.902-0.712-12.57
		l29.674-33.235c3.274-3.668,8.902-3.986,12.57-0.711c3.668,3.275,3.986,8.902,0.712,12.57l-29.674,33.235
		C363.557,93.955,361.121,94.959,358.673,94.959z"/>
	<path style="fill:#2BA5F7;" d="M256.002,488.259c-4.916,0-8.902-3.986-8.902-8.902v-53.414c0-4.916,3.986-8.902,8.902-8.902
		c4.916,0,8.902,3.986,8.902,8.902v53.414C264.905,484.274,260.919,488.259,256.002,488.259z"/>
	<path style="fill:#2BA5F7;" d="M388.353,468.081c-2.448,0-4.884-1.003-6.643-2.973l-29.674-33.235
		c-3.274-3.668-2.956-9.295,0.712-12.57c3.667-3.274,9.295-2.956,12.57,0.711l29.674,33.235c3.274,3.668,2.956,9.295-0.712,12.57
		C392.581,467.335,390.462,468.081,388.353,468.081z"/>
	<path style="fill:#2BA5F7;" d="M123.653,468.081c-2.11,0-4.228-0.745-5.927-2.262c-3.668-3.275-3.986-8.902-0.712-12.57
		l29.674-33.235c3.275-3.668,8.902-3.986,12.57-0.711c3.668,3.275,3.986,8.902,0.712,12.57l-29.674,33.235
		C128.537,467.077,126.1,468.081,123.653,468.081z"/>
</g>
<g>
</g>
<g>
</g>
<g>
</g>
<g>
</g>
<g>
</g>
<g>
</g>
<g>
</g>
<g>
</g>
<g>
</g>
<g>
</g>
<g>
</g>
<g>
</g>
<g>
</g>
<g>
</g>
<g>
</g>
</svg>
