<svg xmlns="http://www.w3.org/2000/svg" viewBox="1493.7 2003.509 90.5 82.107"><defs><style>.a{fill:#f7b239;}</style></defs><path class="a" d="M-380.323-364.466v-9.441a1.574,1.574,0,0,1,1.574-1.574,1.574,1.574,0,0,1,1.573,1.574v9.441a1.574,1.574,0,0,1-1.573,1.574A1.574,1.574,0,0,1-380.323-364.466Zm23.794-2.518-5.245-5.874a1.573,1.573,0,0,1,.126-2.222,1.574,1.574,0,0,1,2.222.125l5.245,5.875a1.573,1.573,0,0,1-.126,2.222,1.571,1.571,0,0,1-1.048.4A1.567,1.567,0,0,1-356.529-366.985Zm-46.662.126a1.574,1.574,0,0,1-.125-2.222l5.245-5.875a1.574,1.574,0,0,1,2.222-.125,1.574,1.574,0,0,1,.126,2.222l-5.245,5.874a1.568,1.568,0,0,1-1.174.526A1.571,1.571,0,0,1-403.191-366.859Zm36.429-21.644a23.667,23.667,0,0,1-8.134-13.948,3.812,3.812,0,0,0-3.852-3.214,3.816,3.816,0,0,0-3.855,3.214,23.656,23.656,0,0,1-8.132,13.948,23.656,23.656,0,0,1-15.181,5.5A18.083,18.083,0,0,1-424-401.087v-5.742a11.865,11.865,0,0,1,11.865-11.863h66.773A11.864,11.864,0,0,1-333.5-406.829v5.742a18.02,18.02,0,0,1-5.3,12.786,18.021,18.021,0,0,1-12.785,5.3A23.652,23.652,0,0,1-366.762-388.5Zm13.012.711a19.474,19.474,0,0,0,2.165.122,13.361,13.361,0,0,0,10.023-4.56h-22.223A18.369,18.369,0,0,0-353.75-387.791Zm-52.163.122a19.457,19.457,0,0,0,2.164-.122,18.372,18.372,0,0,0,10.035-4.438h-22.223A13.362,13.362,0,0,0-405.913-387.67Zm38.815-8.337h27.9a13.334,13.334,0,0,0,.938-3.6h-30.718A19.115,19.115,0,0,0-367.1-396.006Zm-51.206,0h27.9a19.115,19.115,0,0,0,1.877-3.6H-419.24A13.358,13.358,0,0,0-418.3-396.006Zm48-10.6a19.123,19.123,0,0,0,.278,3.23h31.864v-3.448c0-.049,0-.1,0-.147H-370.3C-370.3-406.856-370.306-406.733-370.306-406.611Zm-49.028-.218v3.448h31.863a19.2,19.2,0,0,0,.277-3.23c0-.122,0-.245-.009-.365H-419.33C-419.331-406.927-419.334-406.878-419.334-406.829Zm50.291-3.924h29.714a7.191,7.191,0,0,0-6.034-3.275h-17.527A7.413,7.413,0,0,0-369.042-410.753Zm-49.127,0h29.713a7.408,7.408,0,0,0-6.152-3.275h-17.527A7.192,7.192,0,0,0-418.169-410.753Zm56.52-22.058a1.574,1.574,0,0,1-.126-2.222l5.245-5.875a1.574,1.574,0,0,1,2.222-.125,1.574,1.574,0,0,1,.126,2.222l-5.245,5.874a1.568,1.568,0,0,1-1.174.526A1.567,1.567,0,0,1-361.649-432.811Zm-18.674-1.174v-9.442A1.574,1.574,0,0,1-378.749-445a1.573,1.573,0,0,1,1.573,1.573v9.442a1.573,1.573,0,0,1-1.573,1.573A1.574,1.574,0,0,1-380.323-433.985Zm-17.748,1.048-5.245-5.875a1.572,1.572,0,0,1,.126-2.221,1.573,1.573,0,0,1,2.221.125l5.245,5.875a1.572,1.572,0,0,1-.126,2.221,1.566,1.566,0,0,1-1.047.4A1.568,1.568,0,0,1-398.071-432.937Z" transform="translate(1917.7 2448.509)"/></svg>