<!-- Generator: Adobe Illustrator 21.1.0, SVG Export Plug-In  -->
<svg version="1.1"
	 xmlns="http://www.w3.org/2000/svg" xmlns:xlink="http://www.w3.org/1999/xlink" xmlns:a="http://ns.adobe.com/AdobeSVGViewerExtensions/3.0/"
	 x="0px" y="0px" width="149.7px" height="300.5px" viewBox="0 0 149.7 300.5" style="enable-background:new 0 0 149.7 300.5;"
	 xml:space="preserve">
<style type="text/css">
	.st0{fill:#238fe4;}
</style>
<defs>
</defs>
<g id="XMLID_1_">
	<g>
		<g>
			<circle class="st0" cx="78.9" cy="40.4" r="23.1"/>
			<path class="st0" d="M108.7,73.6c-9.6,0-42,0-51.5,0l-24.4-2.9L46,54.9c3.9-4.7,3.3-11.7-1.4-15.7c-4.7-3.9-11.7-3.3-15.7,1.4
				L2.6,72.3C0,75.4-0.7,79.7,0.8,83.5c1.5,3.8,5,6.5,9,6.9L49.1,95l0,192.1c0,7.4,6,13.4,13.4,13.4s13.4-6,13.4-13.4V180.3h5.8
				v106.8c0,7.4,6,13.4,13.4,13.4s13.4-6,13.4-13.4L108.1,100c0-1.3,1-2.3,2.3-2.3c1.3,0,2.3,1,2.4,2.2v0l0.4,81.8
				c0,6.1,5,11.1,11.1,11.1c0,0,0,0,0.1,0c6.1,0,11.1-5,11.1-11.2l-0.4-81.8C135,85.3,123.2,73.6,108.7,73.6z"/>
			<rect x="127.1" y="34.4" class="st0" width="9.6" height="10.2"/>
			<path class="st0" d="M136.1,0c-5.7,0-10.8,2.7-13,8l7.5,5.3c0.9-1,2-3.8,5.1-3.8c1.9,0,3.7,1.1,3.7,3.1c0,3.5-5.9,5.8-7.6,6.8
				c-4.5,2.3-4.9,5.5-4.9,9.1h9.6c0-1.4,1.3-2.3,2.8-3.2c4.2-2.4,10.4-4,10.4-12.7C149.7,4.3,143.6,0,136.1,0z"/>
		</g>
	</g>
</g>
</svg>
